<svg width="11" height="14" viewBox="0 0 11 14" fill="none" xmlns="http://www.w3.org/2000/svg">
<path d="M2.8216 3.87923V2.79957C2.8216 1.25781 4.01602 0 5.49967 0C6.98331 0 8.17773 1.25781 8.17773 2.79957V3.87923H10.0288C10.1136 3.87929 10.1952 3.91174 10.2573 3.97004C10.3193 4.02834 10.3571 4.10815 10.363 4.19341L10.9993 13.6405C11.0049 13.7297 10.9753 13.8176 10.9169 13.8849C10.8585 13.9523 10.7761 13.9936 10.6876 14H0.334222C0.245581 14 0.16057 13.9645 0.0978913 13.9013C0.0352125 13.8382 0 13.7525 0 13.6631V13.6405L0.636307 4.19341C0.642008 4.10796 0.67969 4.02788 0.741733 3.96935C0.803776 3.91083 0.885553 3.87823 0.970529 3.87815L2.8216 3.87923ZM3.82641 3.87923H7.17399V2.79957C7.17399 1.80736 6.42413 1.01164 5.49967 1.01164C4.5752 1.01164 3.82641 1.80736 3.82641 2.79957V3.87923Z" fill="#F9F9F9"/>
</svg>
