<svg width="229" height="48" viewBox="0 0 229 48" fill="none" xmlns="http://www.w3.org/2000/svg">
<path d="M74.923 36.4C72.7896 36.4 71.163 35.8 70.043 34.6C68.923 33.3733 68.363 31.6267 68.363 29.36V14.64C68.363 12.3733 68.923 10.64 70.043 9.44C71.163 8.21333 72.7896 7.6 74.923 7.6C77.0563 7.6 78.683 8.21333 79.803 9.44C80.923 10.64 81.483 12.3733 81.483 14.64V17.04H77.323V14.36C77.323 12.52 76.563 11.6 75.043 11.6C73.523 11.6 72.763 12.52 72.763 14.36V29.68C72.763 31.4933 73.523 32.4 75.043 32.4C76.563 32.4 77.323 31.4933 77.323 29.68V24.2H75.123V20.2H81.483V29.36C81.483 31.6267 80.923 33.3733 79.803 34.6C78.683 35.8 77.0563 36.4 74.923 36.4ZM87.708 8H93.668L98.228 36H93.828L93.028 30.44V30.52H88.028L87.228 36H83.148L87.708 8ZM92.508 26.72L90.548 12.88H90.468L88.548 26.72H92.508ZM100.363 8H106.643L109.443 28.04H109.523L112.323 8H118.603V36H114.443V14.8H114.363L111.163 36H107.483L104.283 14.8H104.203V36H100.363V8ZM121.886 8H133.886V12H126.286V19.4H132.326V23.4H126.286V32H133.886V36H121.886V8ZM136.417 8H141.937L146.217 24.76H146.297V8H150.217V36H145.697L140.417 15.56H140.337V36H136.417V8ZM156.888 8H162.848L167.408 36H163.008L162.208 30.44V30.52H157.208L156.408 36H152.328L156.888 8ZM161.688 26.72L159.728 12.88H159.648L157.728 26.72H161.688ZM171.146 12H166.546V8H180.146V12H175.546V36H171.146V12ZM182.277 8H186.677V36H182.277V8ZM196.332 36.4C194.172 36.4 192.519 35.7867 191.372 34.56C190.225 33.3333 189.652 31.6 189.652 29.36V14.64C189.652 12.4 190.225 10.6667 191.372 9.44C192.519 8.21333 194.172 7.6 196.332 7.6C198.492 7.6 200.145 8.21333 201.292 9.44C202.439 10.6667 203.012 12.4 203.012 14.64V29.36C203.012 31.6 202.439 33.3333 201.292 34.56C200.145 35.7867 198.492 36.4 196.332 36.4ZM196.332 32.4C197.852 32.4 198.612 31.48 198.612 29.64V14.36C198.612 12.52 197.852 11.6 196.332 11.6C194.812 11.6 194.052 12.52 194.052 14.36V29.64C194.052 31.48 194.812 32.4 196.332 32.4ZM205.988 8H211.508L215.788 24.76H215.868V8H219.788V36H215.268L209.988 15.56H209.908V36H205.988V8ZM223.058 31.76H227.298V36H223.058V31.76Z" fill="#F5F5F5"/>
<path d="M22 31C22 26.0294 26.0294 22 31 22H42C44.7614 22 47 24.2386 47 27V42C47 44.7614 44.7614 47 42 47H27C24.2386 47 22 44.7614 22 42V31Z" fill="#F5F5F5"/>
<path d="M16 25C20.9706 25 25 20.9706 25 16L25 5C25 2.23858 22.7614 -2.66948e-08 20 -5.96244e-08L5 -2.38498e-07C2.23858 -2.71427e-07 2.71427e-07 2.23858 2.38498e-07 5L5.96244e-08 20C2.66948e-08 22.7614 2.23858 25 5 25L16 25Z" fill="#F5F5F5"/>
</svg>
