<svg width="18" height="14" viewBox="0 0 18 14" fill="none" xmlns="http://www.w3.org/2000/svg">
<path d="M17.9609 3.15629L15.8674 9.68188C15.7109 10.1466 15.3 10.4564 14.8109 10.4564H6.73044C6.26087 10.4564 5.81087 10.166 5.65435 9.73997L2.56304 1.5491H0.782609C0.352174 1.5491 0 1.20055 0 0.77455C0 0.348548 0.352174 0 0.782609 0H3.11087C3.44348 0 3.73696 0.213001 3.85435 0.522822L7.04348 8.90733H14.4783L16.1413 3.67911H6.92609C6.49565 3.67911 6.14348 3.33057 6.14348 2.90456C6.14348 2.47856 6.49565 2.13001 6.92609 2.13001H17.2174C17.4717 2.13001 17.7065 2.26556 17.8435 2.4592C18 2.65284 18.0391 2.92393 17.9609 3.15629ZM7.12174 11.4827C6.78913 11.4827 6.45652 11.6183 6.22174 11.8506C5.98696 12.083 5.85 12.4122 5.85 12.7414C5.85 13.0705 5.98696 13.3997 6.22174 13.6321C6.45652 13.8645 6.78913 14 7.12174 14C7.45435 14 7.78696 13.8645 8.02174 13.6321C8.25652 13.3997 8.39348 13.0705 8.39348 12.7414C8.39348 12.4122 8.25652 12.083 8.02174 11.8506C7.78696 11.6183 7.45435 11.4827 7.12174 11.4827ZM14.1457 11.4827C13.813 11.4827 13.4804 11.6183 13.2457 11.8506C13.0109 12.083 12.8739 12.4122 12.8739 12.7414C12.8739 13.0705 13.0109 13.3997 13.2457 13.6321C13.4804 13.8645 13.813 14 14.1457 14C14.4783 14 14.8109 13.8645 15.0457 13.6321C15.2804 13.3997 15.4174 13.0705 15.4174 12.7414C15.4174 12.4122 15.2804 12.083 15.0457 11.8506C14.8109 11.6183 14.4783 11.4827 14.1457 11.4827Z" fill="#F5F5F5"/>
</svg>
